<?xml version="1.0" encoding="UTF-8" standalone="no"?>
<!-- Created with Inkscape (http://www.inkscape.org/) -->

<svg
   width="200mm"
   height="100mm"
   viewBox="0 0 200 100"
   version="1.1"
   id="svg5"
   inkscape:version="1.1.1 (3bf5ae0d25, 2021-09-20, custom)"
   sodipodi:docname="ETSLOGO2.svg"
   xmlns:inkscape="http://www.inkscape.org/namespaces/inkscape"
   xmlns:sodipodi="http://sodipodi.sourceforge.net/DTD/sodipodi-0.dtd"
   xmlns:xlink="http://www.w3.org/1999/xlink"
   xmlns="http://www.w3.org/2000/svg"
   xmlns:svg="http://www.w3.org/2000/svg">
  <sodipodi:namedview
     id="namedview7"
     pagecolor="#505050"
     bordercolor="#ffffff"
     borderopacity="1"
     inkscape:pageshadow="0"
     inkscape:pageopacity="0"
     inkscape:pagecheckerboard="1"
     inkscape:document-units="mm"
     showgrid="false"
     inkscape:lockguides="false"
     inkscape:zoom="0.7071068"
     inkscape:cx="556.49302"
     inkscape:cy="120.91526"
     inkscape:window-width="1918"
     inkscape:window-height="1055"
     inkscape:window-x="0"
     inkscape:window-y="23"
     inkscape:window-maximized="1"
     inkscape:current-layer="g9766"
     width="190mm"
     inkscape:snap-object-midpoints="true" />
  <defs
     id="defs2">
    <linearGradient
       inkscape:collect="always"
       id="linearGradient6712">
      <stop
         style="stop-color:#42275a;stop-opacity:1"
         offset="0"
         id="stop6708" />
      <stop
         style="stop-color:#734b6d;stop-opacity:1"
         offset="1"
         id="stop6710" />
    </linearGradient>
    <linearGradient
       inkscape:collect="always"
       xlink:href="#linearGradient6712"
       id="linearGradient996"
       gradientUnits="userSpaceOnUse"
       gradientTransform="matrix(1.1037445,0,0,1.0602019,-16.932666,-93.533156)"
       x1="29.534771"
       y1="117.93255"
       x2="262.50836"
       y2="121.85675" />
    <linearGradient
       inkscape:collect="always"
       xlink:href="#linearGradient6712"
       id="linearGradient998"
       gradientUnits="userSpaceOnUse"
       gradientTransform="matrix(1.1037445,0,0,1.0602019,-16.932666,-93.533156)"
       x1="29.534771"
       y1="117.93255"
       x2="262.50836"
       y2="121.85675" />
    <linearGradient
       inkscape:collect="always"
       xlink:href="#linearGradient6712"
       id="linearGradient1000"
       gradientUnits="userSpaceOnUse"
       gradientTransform="matrix(1.1037445,0,0,1.0602019,-16.932666,-93.533156)"
       x1="29.534771"
       y1="117.93255"
       x2="262.50836"
       y2="121.85675" />
  </defs>
  <g
     inkscape:label="HoriWhiteBg"
     inkscape:groupmode="layer"
     id="g9766"
     style="display:inline">
    <g
       id="g9756"
       transform="translate(-4.5438109,72.907512)" />
    <g
       id="g1937"
       transform="matrix(1.0000012,0,0,1,0.71067386,6.8454616)">
      <text
         xml:space="preserve"
         style="font-style:normal;font-weight:normal;font-size:10.5833px;line-height:1.25;font-family:sans-serif;fill:#000000;fill-opacity:1;stroke:none;stroke-width:0.264583"
         x="7.8403006"
         y="85.533684"
         id="text9760"
         inkscape:export-filename="C:\Users\adwai\Desktop\text9760.png"
         inkscape:export-xdpi="96"
         inkscape:export-ydpi="96"><tspan
           sodipodi:role="line"
           id="tspan9758"
           style="font-style:normal;font-variant:normal;font-weight:bold;font-stretch:normal;font-family:Comfortaa;-inkscape-font-specification:'Comfortaa Bold';fill:#f9f9f9;stroke-width:0.264583"
           x="7.8403006"
           y="85.533684">Extractive Text Summarization</tspan></text>
      <path
         d="M 62.556107,66.09653 H 15.832824 V 0.6255318 H 62.556107 V 13.728862 H 29.474312 v 13.103331 h 22.38725 v 13.103331 h -22.38725 v 13.057675 h 33.081795 z"
         style="font-size:95.4047px;line-height:1.25;font-family:Righteous;-inkscape-font-specification:Righteous;fill:url(#linearGradient996);stroke-width:0.286214"
         id="path11911" />
      <path
         d="M 100.72375,66.09653 H 87.129797 V 13.728862 H 66.643799 V 0.6255318 H 121.16221 V 13.728862 h -20.43846 z"
         style="font-size:95.4047px;line-height:1.25;font-family:Righteous;-inkscape-font-specification:Righteous;fill:url(#linearGradient998);stroke-width:0.286214"
         id="path11913" />
      <path
         d="m 123.91903,20.2577 q 0,-4.063402 1.61607,-7.624587 1.61607,-3.5611832 4.37288,-6.2092431 2.80435,-2.6937158 6.51179,-4.2460267 3.70744,-1.5523114 7.93774,-1.5523114 H 175.6331 V 13.728862 h -31.27559 q -1.42594,0 -2.66177,0.502219 -1.23581,0.502218 -2.18644,1.415342 -0.90309,0.867468 -1.42594,2.05453 -0.52283,1.187061 -0.52283,2.556747 0,1.369686 0.52283,2.602404 0.52285,1.187061 1.42594,2.100185 0.95063,0.867468 2.18644,1.369686 1.23583,0.502218 2.66177,0.502218 h 13.64148 q 4.23028,0 7.93773,1.552311 3.75497,1.506655 6.51179,4.200371 2.80435,2.64806 4.37288,6.2549 1.61607,3.561184 1.61607,7.624587 0,4.063402 -1.61607,7.624586 -1.56853,3.561184 -4.37288,6.2549 -2.75682,2.64806 -6.51179,4.200371 -3.70745,1.552311 -7.93773,1.552311 H 127.72154 V 52.993199 h 30.27745 q 1.42594,0 2.66175,-0.502218 1.23581,-0.502219 2.13891,-1.369686 0.95063,-0.913125 1.47347,-2.100186 0.52285,-1.187062 0.52285,-2.556747 0,-1.369686 -0.52285,-2.556748 -0.52284,-1.187061 -1.47347,-2.054529 -0.9031,-0.913124 -2.13891,-1.415343 -1.23581,-0.502218 -2.66175,-0.502218 h -13.64148 q -4.2303,0 -7.93774,-1.55231 -3.70744,-1.552311 -6.51179,-4.200371 -2.75681,-2.693717 -4.37288,-6.254901 -1.61607,-3.60684 -1.61607,-7.670242 z"
         style="font-size:95.4047px;line-height:1.25;font-family:Righteous;-inkscape-font-specification:Righteous;fill:url(#linearGradient1000);stroke-width:0.286214"
         id="path11915" />
    </g>
  </g>
</svg>
